<?xml version="1.0" encoding="utf-8"?>
<!-- Generator: Adobe Illustrator 17.0.0, SVG Export Plug-In . SVG Version: 6.00 Build 0)  -->
<!DOCTYPE svg PUBLIC "-//W3C//DTD SVG 1.1//EN" "http://www.w3.org/Graphics/SVG/1.1/DTD/svg11.dtd">
<svg version="1.1" xmlns="http://www.w3.org/2000/svg" xmlns:xlink="http://www.w3.org/1999/xlink" x="0px" y="0px" width="640px"
	 height="90px" viewBox="0 0 640 90" enable-background="new 0 0 640 90" xml:space="preserve">
<g id="長方形_1_のコピー_5_1_" enable-background="new    ">
	<g id="長方形_1_のコピー_5">
		<g>
			<rect x="-1" fill="#0066BF" width="641" height="90"/>
		</g>
	</g>
</g>
<g id="一般観覧_xFF08_視聴_xFF09_申込み">
	<g>
		<path fill="#FFFFFF" d="M85.361,43.029v2.65H40.059v-2.65H85.361z"/>
		<path fill="#FFFFFF" d="M107.86,45.379V64.63c0,1.4-0.35,2.15-1.35,2.5c-1,0.351-2.65,0.4-5.601,0.4c-0.15-0.55-0.5-1.5-0.8-2.101
			c2.3,0.051,4.2,0.051,4.75,0c0.65,0,0.85-0.2,0.85-0.75V45.629c-3.5,0.399-6.95,0.8-10.051,1.15v0.399
			c0,6.301-0.55,14.751-4.1,20.352c-0.4-0.4-1.3-0.95-1.85-1.2c3.5-5.45,3.85-13.15,3.85-19.151v-0.149l-3.5,0.399l-0.25-2.25
			c1.15-0.1,2.4-0.2,3.75-0.35V29.178h4.2c0.8-2.05,1.7-4.95,2.15-6.9l2.55,0.65c-0.75,2.1-1.65,4.4-2.45,6.25h7.851v14.101l2.4-0.3
			v2.15L107.86,45.379z M95.659,44.629c3.05-0.35,6.5-0.7,10.051-1.1V31.278H95.659V44.629z M99.859,33.828
			c1.5,2.15,2.65,5.05,3.15,7l-1.85,0.75c-0.4-1.95-1.65-4.851-2.95-7.05L99.859,33.828z M101.309,60.13h-1.9V48.179h1.9V60.13z
			 M132.761,44.929c-1.65,5.95-4.601,10.65-8.25,14.351c3.2,2.851,7.101,5.001,11.451,6.251c-0.5,0.5-1.2,1.399-1.55,2
			c-4.4-1.4-8.3-3.7-11.601-6.7c-3.6,3.1-7.75,5.35-12.001,6.8c-0.3-0.6-0.9-1.55-1.4-2.05c4.15-1.25,8.25-3.4,11.751-6.4
			c-3.2-3.4-5.65-7.501-7.351-12.051l1.65-0.5h-3.75v-2.2h19.101l0.4-0.15L132.761,44.929z M117.11,30.778
			c0,3.65-0.85,8.25-4.8,11.5c-0.4-0.5-1.2-1.25-1.75-1.55c3.701-2.9,4.3-6.8,4.3-10v-6.451h13.651v11.801
			c0,1.05,0.05,1.65,0.3,1.75c0.2,0.15,0.6,0.2,1,0.2h1.75c0.5,0,1.1-0.05,1.3-0.2c0.25-0.1,0.5-0.4,0.55-1c0.15-0.7,0.2-2.1,0.25-4
			c0.45,0.4,1.25,0.8,1.9,0.95c-0.05,1.75-0.2,3.8-0.4,4.451c-0.25,0.75-0.7,1.2-1.3,1.45c-0.45,0.2-1.3,0.35-2.05,0.35h-2.4
			c-0.85,0-1.75-0.15-2.35-0.65c-0.6-0.5-0.8-1.15-0.8-3.65v-9.25h-9.15V30.778z M115.86,46.629c1.55,4.15,3.9,7.9,6.95,11.001
			c3-2.95,5.45-6.65,6.95-11.001H115.86z"/>
		<path fill="#FFFFFF" d="M146.209,63.83v2.45h-2.2V45.879c-0.9,1.2-1.85,2.25-2.85,3.25c-0.35-0.45-1.2-1.4-1.7-1.8
			c2.9-2.7,5.4-6.301,7.4-10.451h-6.65v-2.1h7.601c0.8-1.8,1.45-3.65,2-5.601h-4.25c-1,1.8-2.1,3.45-3.3,4.8
			c-0.4-0.35-1.35-1.05-1.95-1.3c2.5-2.65,4.5-6.45,5.7-10.351l2.3,0.55c-0.45,1.4-1,2.85-1.65,4.2h15v2.1h-9.5
			c-0.55,1.95-1.2,3.8-1.9,5.601h12.5v2.1h-13.401c-0.9,1.95-1.9,3.8-2.95,5.55h6c0.65-1.35,1.35-3.05,1.7-4.2l2.3,0.65
			c-0.6,1.2-1.25,2.45-1.85,3.55h7.3v1.95h-7.2v4.3h6.5v1.9h-6.5v4.45h6.55v1.95h-6.55v4.851h7.75v2H146.209z M152.459,44.379h-6.25
			v4.3h6.25V44.379z M152.459,50.579h-6.25v4.45h6.25V50.579z M152.459,56.979h-6.25v4.851h6.25V56.979z M182.061,64.78
			c1.15,0,1.3-0.75,1.4-7.001c0.55,0.45,1.45,0.8,2.1,1c-0.2,6.601-0.8,8.201-3.25,8.201h-3.9c-2.601,0-3.25-0.7-3.25-3.351V52.029
			h-4.75c-0.9,7.351-3.35,12.65-10.4,15.601c-0.25-0.5-0.95-1.3-1.45-1.7c6.65-2.6,8.801-7.45,9.601-13.9h-4.05V24.478h18.901
			v27.552h-5.601V63.58c0,1.05,0.15,1.2,1.2,1.2H182.061z M166.31,32.878h14.401v-6.2H166.31V32.878z M166.31,41.329h14.401v-6.3
			H166.31V41.329z M166.31,49.829h14.401v-6.4H166.31V49.829z"/>
		<path fill="#FFFFFF" d="M230.311,64.83c1.95,0,2.25-0.5,2.45-5c0.55,0.399,1.45,0.699,2.15,0.899c-0.3,5.101-1.1,6.251-4.4,6.251
			h-9.151c-4,0-5.1-0.551-5.1-3.351v-4.851h-8.5c-1.9,5.15-6.451,7.551-16.301,8.801c-0.2-0.5-0.75-1.5-1.2-1.9
			c9.1-0.95,13.25-2.95,15-6.9h-7.65V42.729h29.952v16.051h-8.901v4.851c0,1.05,0.35,1.2,2.8,1.2H230.311z M212.81,40.679h-20.401
			V24.127h19.801v1.85h-9.201v2.9h7.9v6.65h-7.9v3.35h9.801V40.679z M194.659,25.978v2.9h6.201v-2.9H194.659z M208.709,30.678
			h-14.051v3.05h14.051V30.678z M194.659,38.878h6.201v-3.35h-6.201V38.878z M199.959,47.479h25.252v-2.9h-25.252V47.479z
			 M199.959,52.229h25.252v-3.001h-25.252V52.229z M199.959,57.029h25.252v-3.05h-25.252V57.029z M234.961,27.428v2.05H218.46
			c-1.2,2.351-2.6,4.451-4.05,6.101c-0.45-0.35-1.35-1.05-1.95-1.35c2.8-3.05,5.2-7.5,6.601-12.051l2.25,0.55
			c-0.5,1.6-1.15,3.15-1.85,4.7H234.961z M233.561,38.729H217.06v-2.05h16.501V38.729z"/>
		<path fill="#FFFFFF" d="M283.311,21.227l1.95,1.2c-6.15,6.3-9.5,13.951-9.5,22.452c0,8.5,3.35,16.15,9.5,22.451l-1.95,1.2
			c-6.35-6.551-10-14.401-10-23.651C273.311,35.628,276.961,27.778,283.311,21.227z"/>
		<path fill="#FFFFFF" d="M307.76,52.479c-1.3-1.601-4.7-5.051-7-7.15V67.48h-2.35V46.779c-2.65,2.8-5.451,5.2-8.15,7.05
			c-0.3-0.6-0.95-1.55-1.4-1.95c6-3.9,12.501-10.75,15.951-17.951h-14.151v-2.25h7.75v-9.45h2.35v9.45h5.3l0.45-0.15l1.4,0.95
			c-1.55,3.8-3.85,7.45-6.45,10.75c2.1,1.8,6.65,6.051,7.8,7.2L307.76,52.479z M331.911,65.08c1.35,0,1.55-0.7,1.65-6.2
			c0.5,0.399,1.45,0.75,2.1,0.95c-0.25,5.9-0.899,7.3-3.5,7.3h-5.301c-3,0-3.7-0.649-3.7-3.4v-11.25h-4.9
			c-1,7.351-3.65,12.301-11.401,15.051c-0.25-0.5-0.95-1.4-1.45-1.8c7.25-2.4,9.601-6.901,10.5-13.251h-4.5V24.828h20.301v27.652
			h-6.3V63.78c0,1.05,0.25,1.3,1.649,1.3H331.911z M313.76,33.328h15.602v-6.351H313.76V33.328z M313.76,41.829h15.602v-6.451
			H313.76V41.829z M313.76,50.379h15.602v-6.5H313.76V50.379z"/>
		<path fill="#FFFFFF" d="M356.109,27.278V67.38h-2.25v-9.15c-4.95,0.851-9.9,1.601-13.701,2.15l-0.399-2.301
			c1.05-0.149,2.25-0.3,3.55-0.5V27.278h-3v-2.25h18.602v2.25H356.109z M353.859,27.278h-8.351v8.05h8.351V27.278z M353.859,37.528
			h-8.351v8.2h8.351V37.528z M345.509,57.279c2.601-0.35,5.45-0.8,8.351-1.25v-8.15h-8.351V57.279z M357.01,64.229
			c2.3-2.399,3.65-6.65,4.3-10.25l2,0.6c-0.75,3.75-2,8.251-4.399,10.851L357.01,64.229z M370.36,27.828v-5.2h2.3v5.2h12.001v2.2
			H372.66v5.1h11.201v13.351H359.51V35.128h10.851v-5.1h-11.751v-2.2H370.36z M366.86,37.228h-5.2v9.201h5.2V37.228z M375.761,65.03
			c1.35,0,1.6-0.551,1.75-5.4c0.55,0.35,1.4,0.75,2.05,0.899c-0.199,5.4-0.899,6.65-3.55,6.65h-6.051c-3.149,0-3.899-0.6-3.899-3.35
			V53.779h2.2V63.83c0,1,0.25,1.2,1.85,1.2H375.761z M369.11,49.379c2.75,1.55,5.95,4.051,7.45,5.801l-1.6,1.55
			c-1.5-1.9-4.7-4.5-7.4-6.101L369.11,49.379z M374.211,37.228h-5.45v9.201h5.45V37.228z M376.161,46.429h5.55v-9.201h-5.55V46.429z
			 M380.111,53.579c2.8,3.25,5.05,7.65,5.8,10.701l-2.1,0.949c-0.65-3.05-2.9-7.55-5.551-10.75L380.111,53.579z"/>
		<path fill="#FFFFFF" d="M391.908,68.53l-1.949-1.2c6.15-6.301,9.5-13.951,9.5-22.451c0-8.5-3.35-16.151-9.5-22.452l1.949-1.2
			c6.351,6.551,10.001,14.401,10.001,23.652C401.909,54.129,398.259,61.979,391.908,68.53z"/>
		<path fill="#FFFFFF" d="M481.761,28.828v27.251h-2.45v-2.75H463.71V67.48h-2.45V53.329h-15.201v3h-2.399V28.828h17.601v-6.55h2.45
			v6.55H481.761z M446.059,31.178v8.5h15.201v-8.5H446.059z M461.26,51.029v-9.051h-15.201v9.051H461.26z M463.71,31.178v8.5h15.601
			v-8.5H463.71z M479.311,51.029v-9.051H463.71v9.051H479.311z"/>
		<path fill="#FFFFFF" d="M500.259,58.18c2.551,3.95,7.351,5.8,13.501,6.05c5.15,0.2,16.251,0.051,21.651-0.25
			c-0.3,0.551-0.7,1.65-0.8,2.45c-5.15,0.15-15.601,0.25-20.802,0.101c-6.8-0.25-11.45-2.2-14.65-6.2c-2.5,2.25-5.2,4.55-7.9,6.8
			l-1.4-2.45c2.4-1.649,5.4-4.05,8.051-6.351v-14h-7.65v-2.3h10V58.18z M499.959,32.928c-1.65-2.45-5.5-5.801-8.851-8l1.7-1.45
			c3.45,2.1,7.251,5.45,9.001,7.9L499.959,32.928z M519.21,25.027c1.551,15.951,5.9,27.702,15.701,32.802
			c-0.6,0.45-1.45,1.251-1.9,1.801c-7.5-4.251-11.851-12.151-14.2-22.802c-2.601,10.201-7.201,17.801-14.201,22.802
			c-0.45-0.4-1.35-1.351-1.95-1.801c7.551-4.899,12.001-12.95,14.201-23.601l1.45,0.25c-0.4-2.3-0.75-4.65-1.051-7.15h-9.351v-2.3
			H519.21z"/>
		<path fill="#FFFFFF" d="M552.56,28.028c2.5,0,9.801-0.4,11.801-0.55c0.75-0.05,1.399-0.2,1.899-0.4l1.65,1.35
			c-0.35,0.45-0.7,0.85-1.1,1.45c-1.4,2.25-3.851,7.9-6.101,12.801c5.65,0.4,10.95,2.25,15.4,4.45c0.301-1.65,0.5-3.35,0.601-4.95
			c0.05-1.25,0.1-2.75,0-4.101l2.65,0.25c-0.2,3.7-0.551,7.001-1.101,9.951c2.5,1.399,4.7,2.85,6.45,4.149l-1.25,2.7
			c-1.649-1.399-3.6-2.899-5.85-4.25c-1.95,7.051-5.751,11.951-13.352,15.701l-2.1-1.8c8.05-3.351,11.7-9.101,13.351-15.151
			c-4.601-2.5-10.051-4.45-15.851-4.75c-1.95,4.35-4.601,10.851-6.601,13.65c-1.65,2.25-3.301,2.95-5.4,2.95
			c-3.351,0-5.801-2.5-5.801-6.15c0-7.25,6.801-12.75,16.352-12.75c2-4.4,4.15-9.25,5.9-12.801c-2,0.1-9.101,0.45-11.401,0.55
			c-1.149,0.05-2.399,0.15-3.5,0.3l-0.149-2.75C550.31,28.028,551.56,28.028,552.56,28.028z M547.709,58.979
			c1.25,0,2.15-0.4,3.25-1.75c2.101-2.601,4.351-8.15,6.2-12.401c-8.25,0.35-12.95,5.3-12.95,10.25
			C544.209,57.63,545.909,58.979,547.709,58.979z"/>
	</g>
</g>
</svg>
